<?xml version="1.0" encoding="UTF-8"?>
<svg width="606px" height="454px" viewBox="0 0 606 454" version="1.1" xmlns="http://www.w3.org/2000/svg" xmlns:xlink="http://www.w3.org/1999/xlink">
    <!-- Generator: Sketch 51.3 (57544) - http://www.bohemiancoding.com/sketch -->
    <title>HOUSE ISOMETRIC</title>
    <desc>Created with Sketch.</desc>
    <defs>
        <radialGradient cx="55.1449189%" cy="-33.9100447%" fx="55.1449189%" fy="-33.9100447%" r="107.835827%" gradientTransform="translate(0.551449,-0.339100),scale(0.639000,1.000000),rotate(101.690971),translate(-0.551449,0.339100)" id="radialGradient-1">
            <stop stop-color="#444545" offset="0%"></stop>
            <stop stop-color="#1F2125" offset="100%"></stop>
        </radialGradient>
        <polygon id="path-2" points="67.7305402 121.55973 67.7305402 180.444667 179.278633 216.772728 212.279136 206.321666 216.733583 208.136795 216.733583 158.017368 180.696537 158.017368"></polygon>
        <path d="M0.73770765,54.9294642 L153.493769,5.00177153 C173.391488,-1.50171657 194.828443,-1.59688506 214.783121,4.72967994 L361.514373,51.2503407 L177.672183,113.413435 L0.73770765,54.9294642 Z" id="path-3"></path>
        <polygon id="path-5" points="0.246512538 0.0315814576 0.246512538 33.5319326 26.9437815 41.5209588 26.9437815 7.99821372"></polygon>
        <linearGradient x1="50%" y1="23.6766103%" x2="50%" y2="100%" id="linearGradient-7">
            <stop stop-color="#4BAA4C" stop-opacity="0" offset="0%"></stop>
            <stop stop-color="#4AA74B" offset="100%"></stop>
        </linearGradient>
        <linearGradient x1="50%" y1="23.6766103%" x2="50%" y2="100%" id="linearGradient-8">
            <stop stop-color="#FFCE19" stop-opacity="0" offset="0%"></stop>
            <stop stop-color="#FFCE19" offset="100%"></stop>
        </linearGradient>
        <linearGradient x1="50%" y1="23.6766103%" x2="50%" y2="100%" id="linearGradient-9">
            <stop stop-color="#5562F2" stop-opacity="0" offset="0%"></stop>
            <stop stop-color="#5663F5" offset="100%"></stop>
        </linearGradient>
    </defs>
    <g id="HOME" stroke="none" stroke-width="1" fill="none" fill-rule="evenodd">
        <g id="01_HOME_15" transform="translate(-720.000000, -144.000000)">
            <g id="SECTION-1">
                <g id="BACK">
                    <g id="HOUSE-ISOMETRIC" transform="translate(720.000000, 144.000000)">
                        <g id="Surface" transform="translate(0.000000, 246.000000)">
                            <polygon id="Path-136" fill="#FEFEFF" points="605.197556 102.428544 310.277479 199.022317 0.360815998 98.2157874 302.759214 0.769613958"></polygon>
                            <polygon id="Path-165" fill="#D6DEF9" points="3.63797881e-12 98.1256712 3.63797881e-12 106.321196 310.458307 207.396183 605.232271 110.284298 605.232271 102.444497 310.458307 199.070735"></polygon>
                            <polygon id="Path-165-Copy" fill="#C1C6DE" points="310.458307 207.396183 605.232271 110.284298 605.232271 102.444497 310.458307 199.070735"></polygon>
                        </g>
                        <g id="Nuages" transform="translate(27.000000, 0.000000)">
                            <path d="M314.237787,16.3666962 C318.656065,16.3666962 320.950018,14.7298519 320.950018,10.5877163 C320.950018,6.44558063 316.990491,4 314.237787,4 C311.485082,4 307,6.44558063 307,10.5877163 C307,14.7298519 309.819509,16.3666962 314.237787,16.3666962 Z" id="Oval-2" fill="#DBE2F6"></path>
                            <path d="M12.290552,123 C19.7932703,123 23.6886531,120.22046 23.6886531,113.186661 C23.6886531,106.152863 16.9649446,102 12.290552,102 C7.61615939,102 0,106.152863 0,113.186661 C0,120.22046 4.78783371,123 12.290552,123 Z" id="Oval-2-Copy-4" fill="#DBE2F8"></path>
                            <g id="Group-48" transform="translate(455.000000, 0.000000)">
                                <path d="M43.7787444,50 C62.5675058,50 72.3225592,43.3820469 72.3225592,26.6349078 C72.3225592,9.8877687 55.4846414,0 43.7787444,0 C32.0728474,1.20827468e-15 13,9.8877687 13,26.6349078 C13,43.3820469 24.989983,50 43.7787444,50 Z" id="Oval-2-Copy-2" fill="#FFFFFF"></path>
                                <path d="M9.36316035,44.0097309 C11.8013232,44.6850958 14.6111022,45 17.7284602,45 C29.1611738,45 35.0969953,40.76451 35.0969953,30.046341 C35.0969953,24.8593468 32.6974448,20.700498 29.4135283,17.7894685 C35.6394531,19.7949991 42.0969953,25.537225 42.0969953,34.046341 C42.0969953,44.76451 36.1611738,49 24.7284602,49 C17.9139254,49 12.5691825,47.4952047 9.36316035,44.0097309 Z" id="Combined-Shape" fill="#DFE3F7"></path>
                                <path d="M18.7284602,49 C30.1611738,49 36.0969953,44.76451 36.0969953,34.046341 C36.0969953,23.328172 25.8513442,17 18.7284602,17 C11.6055762,17 0,23.328172 0,34.046341 C0,44.76451 7.2957466,49 18.7284602,49 Z" id="Oval-2-Copy-5" fill="#FDFEFF"></path>
                            </g>
                        </g>
                        <g id="Maison-1" transform="translate(92.000000, 9.000000)">
                            <polygon id="Path-99" fill="#FFFFFF" points="0.158645794 165.79282 48.0192807 148.089557 53.3177133 150.502935 18.2495884 162.771335 57.5133579 176.938018 57.5133579 181.382585 62.8560959 183.230579 67.4407282 181.594315 67.2726407 180.359864 180.577601 216.813791 211.725154 206.943275 219.15857 209.168873 180.577601 223.086159"></polygon>
                            <polygon id="Path-97" fill="#626FFF" points="5.05633724 100.587141 5.0078519 163.92316 10.4844319 165.976928 10.4844319 102.36053"></polygon>
                            <polygon id="Path-98" fill="#4956DA" points="10.4647451 102.330848 15.9298621 103.630371 15.9298621 164.243536 10.4647451 166.106557"></polygon>
                            <polygon id="Path-99-Copy" fill="#FFFFFF" points="180.4507 216.478211 210.000956 206.978295 219.408016 209.314585 180.4507 222.098483"></polygon>
                            <polygon id="Path-100" fill="#D6DEF9" points="0.595230023 165.845516 0.595230023 168.876032 180.290433 226.526924 218.87819 213.424204 218.87819 209.469375 180.290433 222.953438"></polygon>
                            <polygon id="Path-100-Copy" fill="#D6DEF9" points="180.49018 226.512877 218.87819 213.424204 218.87819 209.469375 180.49018 222.794317"></polygon>
                            <polygon id="Path-101" fill="#D6DEF9" points="52.8142016 150.658985 51.8807016 155.535816 23.6504862 164.818756 17.7930853 162.74207"></polygon>
                            <polygon id="Path-103" fill="#4956DA" points="62.8337488 119.203406 67.3902188 120.905026 67.2450227 180.351741 67.3902188 181.625317 62.8337488 183.231314"></polygon>
                            <path d="M48.3117921,173.657836 L23.8278426,164.653729 L48.3117921,156.69579 L48.3117921,156.63275 L51.9447836,155.569428 L52.8560797,150.398517 L56.3859089,154.305764 L56.3859089,176.56319 L48.3117921,173.677868 L48.3117921,173.657836 Z" id="Combined-Shape" fill="#434EC2"></path>
                            <polygon id="Path-106" fill="#747FFF" points="48.058803 114.639124 48.058803 148.075309 52.8788904 150.39671 56.7431148 154.599741 56.7431148 117.646423"></polygon>
                            <g id="Path-118">
                                <use fill="url(#radialGradient-1)" xlink:href="#path-2"></use>
                                <use fill-opacity="0.3" fill="#000000" xlink:href="#path-2"></use>
                            </g>
                            <polygon id="Path-118-Copy" fill="#626FFF" points="67.3043016 121.14368 67.3043016 180.229224 180.412956 217.328523 209.599226 206.998136 215.416569 208.143929 216.14105 158.017368 180.696537 158.017368"></polygon>
                            <polygon id="Path-118-Copy-2" fill="#626FFF" points="180.79957 216.365276 209.268403 206.654788 218.587972 209.251877 218.587972 145.596331 180.79957 158.017368"></polygon>
                            <polygon id="Path-171" fill="#5562F3" points="89.4323038 128.525656 88.8447404 187.351413 67.2576849 180.357348 67.2576849 121.186522"></polygon>
                            <g id="Group-45" transform="translate(68.000000, 121.000000)" fill="#4956DA">
                                <polygon id="Path-107" points="0.851830731 0.624912037 21.2570774 20.1348584 21.2570774 7.30497496"></polygon>
                            </g>
                            <g id="Group-37-Copy" transform="translate(95.000000, 136.000000)">
                                <g id="Line-4-Copy-3" transform="translate(4.000000, 3.000000)"></g>
                                <path d="M0.770143911,0.576259684 L45.0588031,15.2907359 L45.0588031,54.9752413 L0.770143911,40.4239107 L0.770143911,0.576259684 Z M3.74012346,4.22423337 L3.74012346,38.7275497 L42.0888235,51.3272676 L42.0888235,16.9652159 L3.74012346,4.22423337 Z" id="Combined-Shape" fill="#FFFFFF"></path>
                                <g id="Group-47" transform="translate(49.000000, 16.000000)" fill="#FFFFFF">
                                    <path d="M0.921100735,0.821157658 L29.7895382,10.2081543 L29.7895382,50.2344205 L0.921100735,41.0119745 L0.921100735,0.821157658 Z M3.91665759,4.50054749 L3.91665759,39.3010045 L26.6792808,46.3721646 L26.6792808,11.7141889 L3.91665759,4.50054749 Z" id="Combined-Shape"></path>
                                </g>
                            </g>
                            <polygon id="Path-119" fill="#626FFF" points="4.32849291 169.944544 4.32849291 200.762636 180.928889 257.495882 180.928889 226.589079"></polygon>
                            <polygon id="Path-120" fill="#5562E5" points="180.667328 226.420675 180.667328 257.660163 241.030913 237.582234 273.642011 198.926748 317.00101 212.89099 361.300492 197.518774 364.520133 166.075855 338.081027 174.669052 337.351734 106.79025 218.94087 145.894718 218.94087 209.209925 218.94087 212.89099"></polygon>
                            <path d="M267.666734,166.007723 C267.682595,165.962741 267.707062,165.924964 267.740605,165.895793 C267.974873,165.692063 268.563121,165.985329 269.054493,166.550821 C269.545865,167.116313 269.754289,167.739892 269.52002,167.943622 C269.486089,167.973131 269.444731,167.992213 269.397316,168.001552 C269.492229,167.732373 269.278936,167.205205 268.857919,166.72068 C268.437718,166.237094 267.946672,165.952587 267.666734,166.007723 Z M267.516838,164.20328 C267.549931,164.109426 267.600981,164.030604 267.670968,163.96974 C268.159768,163.544658 269.387144,164.156556 270.412389,165.336452 C271.437635,166.516349 271.87251,167.817442 271.38371,168.242524 C271.312911,168.304094 271.226618,168.343909 271.127688,168.363394 C271.325724,167.801753 270.880688,166.70182 270.002238,165.690861 C269.12549,164.681863 268.100926,164.08824 267.516838,164.20328 Z M267.070709,162.003831 C267.128605,161.839636 267.217917,161.701738 267.340358,161.595258 C268.195504,160.851584 270.342776,161.922088 272.136425,163.986295 C273.930073,166.050503 274.690879,168.326742 273.835732,169.070416 C273.711871,169.178131 273.560903,169.247786 273.387827,169.281875 C273.734287,168.299295 272.955705,166.374982 271.418872,164.606328 C269.885019,162.841103 268.092562,161.80257 267.070709,162.003831 Z M267.143214,160.156964 C267.257902,159.907379 267.415571,159.690996 267.61795,159.514999 C269.033487,158.283983 272.100317,159.494874 274.467907,162.219599 C276.835497,164.944324 277.607289,168.151086 276.191752,169.382101 C275.986424,169.560664 275.746353,169.687847 275.478711,169.766485 C276.166209,168.270349 275.309228,165.581121 273.280131,163.245948 C271.255966,160.916452 268.720703,159.69347 267.143214,160.156964 Z M267.174469,158.123914 C267.380495,157.756199 267.643193,157.428023 267.963904,157.149118 C270.213017,155.193187 275.331879,156.320995 278.326127,159.766904 C281.320374,163.212814 281.056145,167.671928 278.807033,169.627859 C278.479599,169.91261 278.109745,170.130306 277.707523,170.283803 C278.94633,168.072781 278.136184,164.432244 275.568901,161.477703 C273.010567,158.533462 269.535074,157.223053 267.174469,158.123914 Z M288.19601,162.388962 L286.913516,162.388962 L287.520979,162.871031 C286.438393,162.871031 285.995846,163.276929 286.193337,164.088724 C286.489575,165.306416 287.457934,166.740826 286.913516,169.538125 C286.662646,170.82713 285.927756,172.016846 284.708845,173.107273 C284.59749,173.567066 284.431217,173.949068 284.210026,174.253279 C283.988835,174.557489 283.490547,175.023397 282.715162,175.651004 C283.049851,176.852873 283.455811,177.696634 283.933042,178.182285 C284.410273,178.667936 284.845152,178.89034 285.237679,178.849496 L283.358914,178.849496 L281.845133,178.085915 L283.127615,178.182285 L282.116007,177.358863 C282.494777,177.177359 282.633088,176.921715 282.530938,176.591933 C282.428789,176.262151 281.974871,175.948508 281.169184,175.651004 L282.412885,173.342271 L279.92989,175.322655 C280.115022,176.954588 280.361398,178.021482 280.669018,178.523338 C280.976638,179.025194 281.658686,179.356927 282.715162,179.518538 L280.406295,179.518538 L278.059219,178.182285 L279.811413,178.523338 L279.633577,177.893486 L278.059219,176.450331 L279.451702,176.966951 L278.858557,175.148554 C279.367584,174.813954 279.565299,174.264652 279.451702,173.500649 C279.398469,173.142626 278.934308,172.51085 278.059219,171.605318 C280.308899,169.93764 281.57087,168.303253 281.845133,166.702158 C282.119395,165.101062 281.938755,163.091375 281.303213,160.673098 L283.127615,160.572136 L283.127615,159.649616 L284.411715,160.203733 L284.869759,159.528271 L285.237679,160.351144 L286.059125,159.90321 C285.96965,160.438964 285.96965,160.784316 286.059125,160.939266 C286.1486,161.094216 286.377447,161.295283 286.745667,161.542466 L288.19601,162.388962 Z M285.544676,162.603281 C285.70541,162.603281 285.835711,162.473733 285.835711,162.313929 C285.835711,162.154125 285.70541,162.024577 285.544676,162.024577 C285.383942,162.024577 285.253641,162.154125 285.253641,162.313929 C285.253641,162.473733 285.383942,162.603281 285.544676,162.603281 Z M285.856462,161.672352 C285.29933,161.250535 284.733318,161.034797 284.158428,161.02514 C283.583538,161.015483 282.868571,161.092752 282.013528,161.256947 C282.379882,162.518082 282.556452,163.51336 282.543238,164.242783 C282.530024,164.972205 282.458561,166.102 282.328849,167.632167 L283.163557,165.458442 L283.606798,166.55667 L283.793202,164.446456 L284.254762,165.589387 C284.28544,165.150304 284.285769,164.559448 284.255751,163.81682 C284.242797,163.496354 285.01932,162.868772 284.864086,162.374541 C284.720687,161.917986 285.051479,161.683923 285.856462,161.672352 Z" id="Combined-Shape" fill="#FFFFFF" fill-rule="nonzero" opacity="0.136104911" transform="translate(277.633360, 167.855611) rotate(-6.000000) translate(-277.633360, -167.855611) "></path>
                            <g id="Group-49" transform="translate(4.000000, 39.000000)">
                                <g id="Line-10-+-Line-10-Copy-6-+-Line-10-Copy-7-+-Line-10-Copy-8-+-Line-10-Copy-9-+-Line-10-Copy-10-+-Line-10-Copy-11-+-Line-10-Copy-12-+-Line-10-Copy-+-Line-10-Copy-2-+-Line-10-Copy-3-+-Line-10-Copy-4-+-Line-10-Copy-5-Mask">
                                    <mask id="mask-4" fill="white">
                                        <use xlink:href="#path-3"></use>
                                    </mask>
                                    <use id="Mask" fill="#E4E9FA" xlink:href="#path-3"></use>
                                    <polygon id="Line-10" fill="#FFFFFF" fill-rule="nonzero" mask="url(#mask-4)" points="194.448683 106.025658 193.974342 107.448683 18.5513167 48.9743416 19.0256584 47.5513167"></polygon>
                                    <polygon id="Line-10-Copy-6" fill="#FFFFFF" fill-rule="nonzero" mask="url(#mask-4)" points="152.53191 105.951783 152.048217 104.53191 335.46809 42.0482166 335.951783 43.4680902"></polygon>
                                    <polygon id="Line-10-Copy-7" fill="#FFFFFF" fill-rule="nonzero" mask="url(#mask-4)" points="126.53191 96.9517834 126.048217 95.5319098 309.46809 33.0482166 309.951783 34.4680902"></polygon>
                                    <polygon id="Line-10-Copy-8" fill="#FFFFFF" fill-rule="nonzero" mask="url(#mask-4)" points="99.5319098 89.9517834 99.0482166 88.5319098 282.46809 26.0482166 282.951783 27.4680902"></polygon>
                                    <polygon id="Line-10-Copy-9" fill="#FFFFFF" fill-rule="nonzero" mask="url(#mask-4)" points="76.5319098 82.9517834 76.0482166 81.5319098 259.46809 19.0482166 259.951783 20.4680902"></polygon>
                                    <polygon id="Line-10-Copy-10" fill="#FFFFFF" fill-rule="nonzero" mask="url(#mask-4)" points="52.5319098 75.9517834 52.0482166 74.5319098 235.46809 12.0482166 235.951783 13.4680902"></polygon>
                                    <polygon id="Line-10-Copy-11" fill="#FFFFFF" fill-rule="nonzero" mask="url(#mask-4)" points="29.5319098 67.9517834 29.0482166 66.5319098 212.46809 4.04821663 212.951783 5.46809018"></polygon>
                                    <polygon id="Line-10-Copy-12" fill="#FFFFFF" fill-rule="nonzero" mask="url(#mask-4)" points="8.53190982 61.9517834 8.04821663 60.5319098 191.46809 -1.95178337 191.951783 -0.531909818"></polygon>
                                    <polygon id="Line-10-Copy" fill="#FFFFFF" fill-rule="nonzero" mask="url(#mask-4)" points="222.448683 97.0256584 221.974342 98.4486833 46.5513167 39.9743416 47.0256584 38.5513167"></polygon>
                                    <polygon id="Line-10-Copy-2" fill="#FFFFFF" fill-rule="nonzero" mask="url(#mask-4)" points="248.448683 87.0256584 247.974342 88.4486833 72.5513167 29.9743416 73.0256584 28.5513167"></polygon>
                                    <polygon id="Line-10-Copy-3" fill="#FFFFFF" fill-rule="nonzero" mask="url(#mask-4)" points="279.448683 78.0256584 278.974342 79.4486833 103.551317 20.9743416 104.025658 19.5513167"></polygon>
                                    <polygon id="Line-10-Copy-4" fill="#FFFFFF" fill-rule="nonzero" mask="url(#mask-4)" points="304.448683 69.0256584 303.974342 70.4486833 128.551317 11.9743416 129.025658 10.5513167"></polygon>
                                    <polygon id="Line-10-Copy-5" fill="#FFFFFF" fill-rule="nonzero" mask="url(#mask-4)" points="336.448683 59.0256584 335.974342 60.4486833 160.551317 1.97434165 161.025658 0.551316702"></polygon>
                                </g>
                            </g>
                            <polygon id="Path-95" fill="#D6DEF9" points="336.97968 106.468229 336.97968 117.836408 365.554443 97.0425676"></polygon>
                            <polygon id="Path-122" fill="#FFFFFF" points="337.758761 151.170604 364.378983 162.420576 337.758761 171.631449"></polygon>
                            <polygon id="Path-121" fill="#434EC2" points="337.608047 166 351.065183 161.785776 337.608047 156.018264"></polygon>
                            <polygon id="Path-123" fill="#D6DEF9" points="337.729611 171.252492 337.729611 174.82002 364.39552 166.28884 364.39552 162.397512"></polygon>
                            <polygon id="Path-124" fill="#FFFFFF" points="4.08797288 200.523452 4.08797288 207.075322 181.665997 263.866228 181.665997 257.548422"></polygon>
                            <polygon id="Path" fill="#5864EC" points="216.809807 276.111461 216.809807 265.092451 176.316414 262.015489"></polygon>
                            <polygon id="Path-Copy" fill="#626FFF" points="167.937332 333.372449 211.031658 347.849749 216.574629 350.974417 216.574629 275.617645 211.031658 273.645462 167.937332 259.225804"></polygon>
                            <polygon id="Path-176" fill="#7782FF" points="210.951042 273.632519 216.931059 275.664295 216.648826 350.993977 210.781567 347.756798"></polygon>
                            <polygon id="Path" fill="#626FFF" points="102.76384 238.49413 126.554342 246.272437 126.554342 318.530469 103.414839 310.732076"></polygon>
                            <polygon id="Path-Copy-2" fill="#5A68FF" points="125.691587 245.983308 168.690409 259.475459 168.690409 333.582631 125.691587 318.222942"></polygon>
                            <polygon id="Path-125" fill="#8690FF" points="181.258831 256.850404 181.258831 262.72682 217.205463 265.069119 217.205463 252.15911 234.050316 246.428139 241.603755 237.315192"></polygon>
                            <polygon id="Path-128" fill="#626FFF" points="64.5827762 322.285798 3.66219979 303.459842 4.1656103 207.065234 64.5827762 226.359849"></polygon>
                            <polygon id="Path-126" fill="#4956DA" points="64.524766 226.260285 64.524766 322.506894 103.49409 310.849572 103.012902 238.703813"></polygon>
                            <polygon id="Path-127" fill="#5A68FF" opacity="0.282979911" points="103.557979 310.677188 125.743293 318.169468 108.773426 323.55655 64.5514396 322.436092"></polygon>
                            <polygon id="Path-129" fill="#FFFFFF" points="16 228 16 231.193077 17.9833036 231.960462 17.9833036 269.450455 51.2408074 279.920144 51.2408074 242.072698 53.5416318 242.818668 53.5416318 239.57456"></polygon>
                            <polygon id="Path-129-Copy-2" fill="#FFFFFF" points="16 228 16 231.193077 17.9833036 231.960462 17.9833036 269.450455 51.2408074 279.920144 51.2408074 242.072698 53.5416318 242.818668 53.5416318 239.57456"></polygon>
                            <g id="Line-3-Copy-+-Line-6-Copy-+-Line-6-Copy-2-+-Line-6-Copy-3-Mask" transform="translate(21.000000, 233.000000)">
                                <mask id="mask-6" fill="white">
                                    <use xlink:href="#path-5"></use>
                                </mask>
                                <use id="Mask" fill="#626FFF" xlink:href="#path-5"></use>
                                <polygon id="Line-3-Copy" fill="#FFFFFF" fill-rule="nonzero" mask="url(#mask-6)" points="13 3 14 3 14 38 13 38"></polygon>
                                <polygon id="Line-6-Copy" fill="#FFFFFF" fill-rule="nonzero" mask="url(#mask-6)" points="-0.124932429 26.8308466 0.16915342 25.8750676 27.1249324 34.1691534 26.8308466 35.1249324"></polygon>
                                <polygon id="Line-6-Copy-2" fill="#FFFFFF" fill-rule="nonzero" mask="url(#mask-6)" points="-0.124932429 18.8308466 0.16915342 17.8750676 27.1249324 26.1691534 26.8308466 27.1249324"></polygon>
                                <polygon id="Line-6-Copy-3" fill="#FFFFFF" fill-rule="nonzero" mask="url(#mask-6)" points="-0.124932429 9.83084658 0.16915342 8.87506757 27.1249324 17.1691534 26.8308466 18.1249324"></polygon>
                            </g>
                            <polygon id="Path-146" fill="#FFFFFF" points="132.090216 247.957903 132.090216 259.929598 165.059336 270.755955 165.059336 258.323948"></polygon>
                            <polygon id="Line-7" fill="#5A68FF" fill-rule="nonzero" points="147.5 257.678017 149.5 258.296123 149.5 269.5 147.5 269.5"></polygon>
                            <polygon id="Path-147" fill="#414DC3" points="164.919496 332.177739 127.834394 318.825994 127.834394 261.551299 164.919496 273.745315"></polygon>
                            <polygon id="Path-147-Copy" fill="#FFFFFF" points="164.919496 328.507257 131.913465 316.560801 131.913465 262.841157 164.919496 273.829434"></polygon>
                            <polygon id="Path-148" fill="#5A68FF" points="150.035973 272.454338 150.035973 311.752496 162.216321 316.182741 162.216321 276.196039"></polygon>
                            <polygon id="Path-148-Copy" fill="#5A68FF" points="134 267 134 305.891704 146.180348 310.583729 146.180348 270.7417"></polygon>
                            <path d="M143.658114,291.974342 C143.396142,292.061666 143.112982,291.920086 143.025658,291.658114 C142.938334,291.396142 143.079914,291.112982 143.341886,291.025658 L146.341886,290.025658 C146.603858,289.938334 146.887018,290.079914 146.974342,290.341886 C147.061666,290.603858 146.920086,290.887018 146.658114,290.974342 L143.658114,291.974342 Z" id="Line-8" fill="#414DC4" fill-rule="nonzero"></path>
                            <path d="M149.22265,291.916025 C148.992886,291.762849 148.930799,291.452414 149.083975,291.22265 C149.237151,290.992886 149.547586,290.930799 149.77735,291.083975 L152.77735,293.083975 C153.007114,293.237151 153.069201,293.547586 152.916025,293.77735 C152.762849,294.007114 152.452414,294.069201 152.22265,293.916025 L149.22265,291.916025 Z" id="Line-9" fill="#414DC4" fill-rule="nonzero"></path>
                            <polygon id="Path-160" fill="#8690FF" points="360.99031 197.452496 360.99031 205.143932 342.218734 221.533042 337.683172 219.411068 337.683172 213.092402 325.50689 216.078842 315.690022 213.092402"></polygon>
                            <polygon id="Path-161" fill="#414DC3" points="326.224973 215.499074 337.412307 218.899304 337.412307 212.164543"></polygon>
                            <polygon id="Path" fill="#626FFF" points="56.3502625 117.032367 56.3502625 176.563846 57.5431034 176.921897 57.5431034 181.583779 62.7957302 183.128636 62.7957302 119.005824"></polygon>
                            <polygon id="Path-103-Copy" fill="#4956DA" points="180 157 184.55647 158.70162 184.411274 218.148335 184.55647 219.421911 180 221.027909"></polygon>
                            <polygon id="Path-Copy-3" fill="#626FFF" points="174 155 174 214.531479 175.192841 214.88953 175.192841 219.551412 180.445468 221.096269 180.445468 156.973457"></polygon>
                            <polygon id="Path-166" fill="#D6DEF9" points="5.05278787 94.0086135 5.05278787 100.587202 180.62344 158.583364 218.825847 160.509421 218.825847 145.97088 365.52217 97.0780037 365.52217 90.2951142 180.62344 151.920151"></polygon>
                            <polygon id="Path-144" fill="#414DC3" points="216.717449 252.304444 216.717449 267.099127 234.900237 245.928812"></polygon>
                            <polygon id="Path-172" fill="#434EC2" points="181.350268 194.139521 181.350268 216.796181 210.064198 206.885054"></polygon>
                            <polygon id="Path-173" fill="#4956DA" points="180.64256 217.315297 185.924183 215.320078 185.924183 161.829377 185.924183 158.617579 180.64256 158.617579"></polygon>
                            <polygon id="Path-175" fill="#FFFFFF" points="210.038655 206.900422 218.78776 209.440389 218.78776 160.63136 210.038655 160.081661"></polygon>
                            <polygon id="Mask-Copy-7" fill="#FFFFFF" points="4.73770765 93.9294642 111.514312 59.67999 207.367496 93.6043233 106.387021 127.528657"></polygon>
                            <g id="Group-51" transform="translate(257.000000, 0.000000)">
                                <polygon id="Path-25-Copy-2" fill="url(#linearGradient-7)" points="57.6916604 90.6896257 57.6916604 24.4709326 106.144664 24.4709326 106.144664 90.2496777 81.5773381 98.5027348"></polygon>
                                <path d="M56.9909944,90.6965422 L81.576167,98.8025704 L106.833472,90.3302278 L82.3017312,82.1587395 L56.9909944,90.6965422 Z" id="Path-94-Copy-8" stroke="#FFFFFF" fill="#57C458"></path>
                                <polygon id="Path-25-Copy-3" fill="url(#linearGradient-8)" opacity="0.3578125" points="35.1366061 81.8091495 35.1366061 0.0135342849 80.1381924 0.0135342849 80.1381924 82.14631 56.5784971 89.6986534"></polygon>
                                <polygon id="Path-94-Copy-5" stroke="#FFFFFF" fill="#FFCE19" points="33.5698775 81.7790863 56.5863079 73.83495 82 82.0433807 56.5863079 90.1610058"></polygon>
                                <polygon id="Path-25" fill="url(#linearGradient-9)" opacity="0.502845982" points="2.47427003 108.677493 2.47427003 46.3634492 49.8403072 46.3634492 49.8403072 108.345724 25.6076301 116.42075"></polygon>
                                <polygon id="Path-94-Copy-6" stroke="#FFFFFF" stroke-width="1.5" fill="#5A68FF" points="0 108.700375 26.619194 100 52.2584364 108.335293 25.5849344 117.222254"></polygon>
                            </g>
                        </g>
                        <g id="Maison-2" transform="translate(303.000000, 197.000000)">
                            <polygon id="Path-162" fill="#626FFF" points="121.143951 193.254758 10.5766708 157.541701 10.5766708 89.1051714 121.143951 124.82258"></polygon>
                            <polygon id="Path-133" fill="#434EC2" points="177.168755 48.1982159 120.842186 124.827484 174.826996 70.5667272 215.843749 90.5726553"></polygon>
                            <polygon id="Path-132" fill="#4652D1" points="62.6150131 10.9787828 0.020065401 85.7441364 121.213328 125.186345 177.159633 48.1762801"></polygon>
                            <polygon id="Path-134" fill="#5562E5" points="208.79091 87.0321447 208.79091 164.073738 120.993137 192.95729 120.993137 124.306665 175.022455 69.9944814"></polygon>
                            <polygon id="Path-135" fill="#5A68FF" opacity="0.282979911" points="208.452724 144.870226 253.669386 160.195042 166.632531 190.281032 119.890902 193.095069 208.452724 163.675013"></polygon>
                            <polygon id="Path-149" fill="#FFFFFF" points="48.7634271 113.980912 49.9912829 114.394616 49.9912829 111.340652 18.8478859 101.089202 18.8478859 103.666368 20.5294476 104.306067 20.5294476 160.772922 22.7107739 161.565577 22.7107739 104.962492 46.5190006 112.974851 46.5190006 169.147508 48.7634271 169.966114"></polygon>
                            <polygon id="Path-150" fill="#626FFF" points="22.6467294 161.319079 46.6453993 169.243693 46.6453993 112.99941 22.6467294 104.978472"></polygon>
                            <polygon id="Path-151" fill="#FFFFFF" points="27.0088068 112.10461 27.0088068 135.821764 42.4794533 140.832386 42.4794533 117.082991"></polygon>
                            <polygon id="Path-152" fill="#FFFFFF" points="74.7207962 118.533511 74.7207962 136.031512 108.216399 148.198091 108.216399 129.781512"></polygon>
                            <polygon id="Path-153" fill="#626FFF" points="77 122.641763 77 134.001942 105.38481 143.601865 105.38481 132.076768"></polygon>
                            <polygon id="Path-163" fill="#414DC3" points="10.6242686 157.36485 5.61139568 162.980508 5.61139568 87.5517295 10.6242686 89.0570134"></polygon>
                            <g id="Group-55" transform="translate(158.000000, 0.000000)">
                                <polygon id="Path-155" fill="#626FFF" points="0.243256723 12.8262673 0.243256723 41.9764222 11.6364916 45.7409798 11.6364916 16.869906"></polygon>
                                <polygon id="Path-158" fill="#4956DA" points="22.9978484 13.0376437 22.9978484 52.4443762 19.2090379 48.2046099 11.5868601 45.6982309 11.5868601 16.7818211"></polygon>
                                <polygon id="Path-154" fill="#DDE3FB" points="0.170904372 12.7741744 11.6195223 16.8891617 23.0681403 13.138908 11.6773887 9.14596089"></polygon>
                                <polygon id="Path-156" fill="#4F5ACF" points="2.994092 16.8316287 2.994092 23.8310798 8.72577535 25.7679701 8.72577535 18.9057538"></polygon>
                                <polygon id="Path-157" fill="#3A4294" points="15.1342638 18.7203144 15.1342638 25.6936507 20.6226926 24.0908502 20.6226926 17.0072035"></polygon>
                                <polygon id="Path-159" fill="#FFFFFF" points="12.1401657 11.9866471 7.8013103 8.13626239 12.1401657 2.05293901 9.97073798 0.846965766 4.68216029 8.13626239 9.97073798 13.3422022"></polygon>
                                <polyline id="Path-174" stroke="#404BBF" points="12.1934073 2.02076476 7.83621051 8.200384 12.1934073 11.8465313"></polyline>
                            </g>
                        </g>
                        <g id="Buissons" transform="translate(10.000000, 274.000000)">
                            <g id="Group-29">
                                <polygon id="Path-130" fill="#7884FF" points="14.3189397 0.816985399 14.3189397 52.9711759 0.142504591 47.0034842"></polygon>
                                <polygon id="Path-131" fill="#4D5AEB" points="14.0308312 0.832939284 29.4985926 46.6215294 14.0308312 52.8942219"></polygon>
                            </g>
                            <g id="Group-39" transform="translate(560.000000, 24.000000)">
                                <polygon id="Path-137" fill="#7884FF" points="9.84945967 0.714183781 0.0616679039 32.9865916 9.84945967 36.199013"></polygon>
                                <polygon id="Path-138" fill="#4D5AEB" points="9.75812401 0.899829909 20.6611889 32.4107362 9.75812401 36.414021"></polygon>
                            </g>
                            <g id="Group-36" transform="translate(411.000000, 109.000000)">
                                <polygon id="Path-141" fill="#4D5AEB" points="14.1289261 0.423352233 29.6960985 44.8886118 14.3402182 52.3461499"></polygon>
                                <polygon id="Path-142" fill="#7884FF" points="14.1451082 0.405697829 0.387684691 47.0752892 14.4227095 52.0413921"></polygon>
                            </g>
                            <g id="Group-31" transform="translate(432.000000, 128.000000)">
                                <polygon id="Path-139" fill="#7884FF" points="9.55602775 0.790715886 0.284689208 31.9334089 9.55602775 36.2634059"></polygon>
                                <polygon id="Path-140" fill="#4D5AEB" points="9.51583985 1.04792755 20.1729027 31.1905456 9.51583985 36.2684186"></polygon>
                            </g>
                        </g>
                        <g id="Arbres" transform="translate(59.000000, 261.000000)">
                            <g id="Group-52" transform="translate(5.000000, 59.000000)">
                                <polygon id="Path-143-Copy" fill="#D3DCF4" points="0 9.68074922 27.6826228 0.321260723 82.6304874 18.5742543 54.7843432 27.555975"></polygon>
                                <polygon id="Path-143" fill="#F1F5FB" points="3.52897585 10.4764206 26.7785208 2.45766488 79.2805173 19.8981716 55.8747297 27.555975"></polygon>
                            </g>
                            <g id="Group-42">
                                <circle id="Oval-9-Copy-4" fill="#DBE1F9" cx="29" cy="27" r="25"></circle>
                                <circle id="Oval-9" fill="#F0F2FE" cx="14.5" cy="31.5" r="14.5"></circle>
                                <path d="M28,51.5377852 L31.8589239,51.5377852 L31.8589239,69 C31.05919,69.7336751 30.416036,70.1005126 29.929462,70.1005126 C29.4428879,70.1005126 28.7997339,69.7336751 28,69 L28,51.5377852 Z" id="Rectangle" fill="#92A9EB"></path>
                                <path d="M61,64.7236259 L64.8589239,64.7236259 L64.8589239,79 C64.05919,79.7336751 63.416036,80.1005126 62.929462,80.1005126 C62.4428879,80.1005126 61.7997339,79.7336751 61,79 L61,64.7236259 Z" id="Rectangle-Copy" fill="#92A9EB"></path>
                                <circle id="Oval-9-Copy-5" fill="#DBE1F9" cx="63" cy="44" r="21"></circle>
                                <circle id="Oval-9-Copy" fill="#F0F2FE" cx="39" cy="9" r="9"></circle>
                                <circle id="Oval-9-Copy-2" fill="#F0F2FE" cx="70" cy="29" r="7"></circle>
                                <circle id="Oval-9-Copy-3" fill="#F0F2FE" cx="49.5" cy="47.5" r="12.5"></circle>
                            </g>
                        </g>
                    </g>
                </g>
            </g>
        </g>
    </g>
</svg>